<svg width="1058" height="45" viewBox="0 0 1058 45" fill="none" xmlns="http://www.w3.org/2000/svg">
<rect y="25" width="10" height="10" fill="#5A8E4A"/>
<rect x="125" y="15" width="10" height="10" fill="#5A8E4A"/>
<rect x="135" y="25" width="10" height="10" fill="#5A8E4A"/>
<rect x="135" y="15" width="10" height="10" fill="#5A8E4A"/>
<rect x="135" y="5" width="10" height="10" fill="#5A8E4A"/>
<rect x="155" y="5" width="10" height="10" fill="#5A8E4A"/>
<rect x="115" y="5" width="10" height="10" fill="#5A8E4A"/>
<rect x="145" y="15" width="10" height="10" fill="#5A8E4A"/>
<rect y="25" width="10" height="10" fill="#5A8E4A"/>
<rect x="290" y="20" width="10" height="10" fill="#5A8E4A"/>
<rect x="495" width="10" height="10" fill="#5A8E4A"/>
<rect x="1048" y="15" width="10" height="10" fill="#5A8E4A"/>
<rect x="659" y="25" width="10" height="10" fill="#5A8E4A"/>
<rect x="659" y="15" width="10" height="10" fill="#5A8E4A"/>
<rect x="659" y="35" width="10" height="10" fill="#5A8E4A"/>
<rect x="669" y="25" width="10" height="10" fill="#5A8E4A"/>
<rect x="649" y="25" width="10" height="10" fill="#5A8E4A"/>
<rect x="639" y="15" width="10" height="10" fill="#5A8E4A"/>
<rect x="679" y="15" width="10" height="10" fill="#5A8E4A"/>
<rect x="790" y="15" width="10" height="10" fill="#5A8E4A"/>
<rect x="800" y="25" width="10" height="10" fill="#5A8E4A"/>
<path d="M810 35H820V45H810V35Z" fill="#5A8E4A"/>
<path d="M820 25H830V35H820V25Z" fill="#5A8E4A"/>
<path d="M830 15H840V25H830V15Z" fill="#5A8E4A"/>
</svg>
