<svg width="500" height="36" viewBox="0 0 500 36" fill="none" xmlns="http://www.w3.org/2000/svg">
<path d="M9 31.5V27H4.5V22.5H0V9H4.5V4.5H9V0H27V4.5H31.5V9H22.5V4.5H13.5V9H9V22.5H13.5V27H22.5V22.5H31.5V27H27V31.5H9ZM40.5 31.5V27H49.5V4.5H45V0H58.5V27H67.5V31.5H40.5ZM85.5 4.5V0H94.5V4.5H85.5ZM76.5 31.5V27H85.5V13.5H81V9H94.5V27H103.5V31.5H76.5ZM112.5 31.5V27H108V13.5H112.5V9H139.5V13.5H117V27H139.5V31.5H112.5ZM144 31.5V0H153V18H162V13.5H166.5V9H175.5V13.5H171V18H166.5V22.5H171V27H175.5V31.5H166.5V27H162V22.5H153V31.5H144ZM229.5 31.5V13.5H220.5V9H229.5V0H238.5V9H247.5V13.5H238.5V31.5H229.5ZM256.5 31.5V27H252V13.5H256.5V9H279V13.5H283.5V27H279V31.5H256.5ZM261 27H274.5V13.5H261V27ZM328.5 31.5V27H324V0H333V9H351V13.5H355.5V27H351V31.5H328.5ZM333 27H346.5V13.5H333V27ZM364.5 31.5V27H360V13.5H364.5V9H387V13.5H391.5V22.5H369V27H387V31.5H364.5ZM369 18H382.5V13.5H369V18ZM400.5 36V31.5H418.5V27H400.5V22.5H396V13.5H400.5V9H427.5V31.5H423V36H400.5ZM405 22.5H418.5V13.5H405V22.5ZM445.5 4.5V0H454.5V4.5H445.5ZM436.5 31.5V27H445.5V13.5H441V9H454.5V27H463.5V31.5H436.5ZM468 31.5V9H495V13.5H499.5V31.5H490.5V13.5H477V31.5H468Z" fill="url(#paint0_linear)"/>
<defs>
<linearGradient id="paint0_linear" x1="252" y1="-25" x2="252" y2="18" gradientUnits="userSpaceOnUse">
<stop stop-color="#FF9F26"/>
<stop offset="0.9999" stop-color="#FF9F26"/>
<stop offset="1" stop-color="#FFCF92"/>
</linearGradient>
</defs>
</svg>
